<svg width="24" height="24" viewBox="0 0 24 24" fill="none" xmlns="http://www.w3.org/2000/svg">
<path d="M4.44444 10.8057C4.03023 10.8057 3.69444 11.1415 3.69444 11.5557C3.69444 11.9699 4.03023 12.3057 4.44444 12.3057V10.8057ZM8 11.5557V12.3057H8.75V11.5557H8ZM8.75 9.48159C8.75 9.06738 8.41421 8.73159 8 8.73159C7.58578 8.73159 7.25 9.06738 7.25 9.48159H8.75ZM7.25 13.6297C7.25 14.044 7.58578 14.3797 8 14.3797C8.41421 14.3797 8.75 14.044 8.75 13.6297H7.25ZM11.2593 10.8057C10.845 10.8057 10.5093 11.1415 10.5093 11.5557C10.5093 11.9699 10.845 12.3057 11.2593 12.3057V10.8057ZM19.5556 12.3057C19.9698 12.3057 20.3056 11.9699 20.3056 11.5557C20.3056 11.1415 19.9698 10.8057 19.5556 10.8057V12.3057ZM19.5556 6.37974C19.9698 6.37974 20.3056 6.04395 20.3056 5.62974C20.3056 5.21552 19.9698 4.87974 19.5556 4.87974V6.37974ZM16 5.62974H15.25V6.37974H16V5.62974ZM16.75 3.55566C16.75 3.14145 16.4142 2.80566 16 2.80566C15.5858 2.80566 15.25 3.14145 15.25 3.55566H16.75ZM15.25 7.70381C15.25 8.11803 15.5858 8.45381 16 8.45381C16.4142 8.45381 16.75 8.11803 16.75 7.70381H15.25ZM12.7407 6.37974C13.155 6.37974 13.4907 6.04395 13.4907 5.62974C13.4907 5.21552 13.155 4.87974 12.7407 4.87974V6.37974ZM4.44444 4.87974C4.03023 4.87974 3.69444 5.21552 3.69444 5.62974C3.69444 6.04395 4.03023 6.37974 4.44444 6.37974V4.87974ZM19.5556 18.2316C19.9698 18.2316 20.3056 17.8958 20.3056 17.4816C20.3056 17.0674 19.9698 16.7316 19.5556 16.7316V18.2316ZM16 17.4816H15.25V18.2316H16V17.4816ZM16.75 15.4075C16.75 14.9933 16.4142 14.6575 16 14.6575C15.5858 14.6575 15.25 14.9933 15.25 15.4075H16.75ZM15.25 19.5557C15.25 19.9699 15.5858 20.3057 16 20.3057C16.4142 20.3057 16.75 19.9699 16.75 19.5557H15.25ZM12.7407 18.2316C13.155 18.2316 13.4907 17.8958 13.4907 17.4816C13.4907 17.0674 13.155 16.7316 12.7407 16.7316V18.2316ZM4.44444 16.7316C4.03023 16.7316 3.69444 17.0674 3.69444 17.4816C3.69444 17.8958 4.03023 18.2316 4.44444 18.2316V16.7316ZM4.44444 12.3057H8V10.8057H4.44444V12.3057ZM8.75 11.5557V9.48159H7.25V11.5557H8.75ZM7.25 9.48159V13.6297H8.75V9.48159H7.25ZM11.2593 12.3057H19.5556V10.8057H11.2593V12.3057ZM19.5556 4.87974H16V6.37974H19.5556V4.87974ZM16.75 5.62974V3.55566H15.25V5.62974H16.75ZM15.25 3.55566V7.70381H16.75V3.55566H15.25ZM12.7407 4.87974H4.44444V6.37974H12.7407V4.87974ZM19.5556 16.7316H16V18.2316H19.5556V16.7316ZM16.75 17.4816V15.4075H15.25V17.4816H16.75ZM15.25 15.4075V19.5557H16.75V15.4075H15.25ZM12.7407 16.7316H4.44444V18.2316H12.7407V16.7316Z" fill="#FF9F0E"/>
</svg>
