<svg width="18" height="18" viewBox="0 0 18 18" fill="none" xmlns="http://www.w3.org/2000/svg">
<path d="M15.63 3.45789C15.2469 3.07465 14.7921 2.77063 14.2915 2.56321C13.7909 2.35578 13.2544 2.24902 12.7125 2.24902C12.1706 2.24902 11.6341 2.35578 11.1335 2.56321C10.6329 2.77063 10.1781 3.07465 9.795 3.45789L9 4.25289L8.205 3.45789C7.43123 2.68412 6.38177 2.24942 5.2875 2.24942C4.19322 2.24942 3.14377 2.68412 2.37 3.45789C1.59623 4.23166 1.16153 5.28112 1.16153 6.37539C1.16153 7.46967 1.59623 8.51912 2.37 9.29289L3.165 10.0879L9 15.9229L14.835 10.0879L15.63 9.29289C16.0132 8.90983 16.3173 8.455 16.5247 7.95441C16.7321 7.45381 16.8389 6.91726 16.8389 6.37539C16.8389 5.83353 16.7321 5.29697 16.5247 4.79638C16.3173 4.29578 16.0132 3.84096 15.63 3.45789Z" fill="#ff0000"/>
</svg>
